<?xml version="1.0" encoding="UTF-8" standalone="no"?>
<!DOCTYPE svg PUBLIC "-//W3C//DTD SVG 1.1//EN"
 "http://www.w3.org/Graphics/SVG/1.1/DTD/svg11.dtd">
<!-- Generated by graphviz version 7.1.0 (20230121.1956)
 -->
<!-- Title: VoglanderSystemArchitecture Pages: 1 -->
<svg width="2818pt" height="938pt"
 viewBox="0.00 0.00 2818.20 938.20" xmlns="http://www.w3.org/2000/svg" xmlns:xlink="http://www.w3.org/1999/xlink">
<g id="graph0" class="graph" transform="scale(1 1) rotate(0) translate(39.6 898.6)">
<title>VoglanderSystemArchitecture</title>
<polygon fill="#0b1020" stroke="none" points="-39.6,39.6 -39.6,-898.6 2778.6,-898.6 2778.6,39.6 -39.6,39.6"/>
<text text-anchor="middle" x="1369.5" y="-834.2" font-family="PingFang SC" font-size="26.00" fill="#f8fafc">Voglander 当前系统架构</text>
<g id="clust1" class="cluster">
<title>cluster_external</title>
<path fill="#111827" stroke="#334155" stroke-width="1.2" d="M803.5,-104C803.5,-104 1504.5,-104 1504.5,-104 1510.5,-104 1516.5,-110 1516.5,-116 1516.5,-116 1516.5,-276 1516.5,-276 1516.5,-282 1510.5,-288 1504.5,-288 1504.5,-288 803.5,-288 803.5,-288 797.5,-288 791.5,-282 791.5,-276 791.5,-276 791.5,-116 791.5,-116 791.5,-110 797.5,-104 803.5,-104"/>
<text text-anchor="middle" x="907" y="-263.2" font-family="PingFang SC" font-size="26.00" fill="#fde68a">接入端 / 外部系统</text>
</g>
<g id="clust2" class="cluster">
<title>cluster_app</title>
<path fill="#111827" stroke="#334155" stroke-width="1.2" d="M20,-296C20,-296 2374,-296 2374,-296 2380,-296 2386,-302 2386,-308 2386,-308 2386,-703 2386,-703 2386,-709 2380,-715 2374,-715 2374,-715 20,-715 20,-715 14,-715 8,-709 8,-703 8,-703 8,-308 8,-308 8,-302 14,-296 20,-296"/>
<text text-anchor="middle" x="325.5" y="-690.2" font-family="PingFang SC" font-size="26.00" fill="#bae6fd">Voglander 后端应用（Spring Boot 3.5.3 / Java 17）</text>
</g>
<g id="clust3" class="cluster">
<title>cluster_infra</title>
<path fill="#111827" stroke="#334155" stroke-width="1.2" d="M2536,-329C2536,-329 2719,-329 2719,-329 2725,-329 2731,-335 2731,-341 2731,-341 2731,-604 2731,-604 2731,-610 2725,-616 2719,-616 2719,-616 2536,-616 2536,-616 2530,-616 2524,-610 2524,-604 2524,-604 2524,-341 2524,-341 2524,-335 2530,-329 2536,-329"/>
<text text-anchor="middle" x="2585" y="-591.2" font-family="PingFang SC" font-size="26.00" fill="#d1d5db">基础设施</text>
</g>
<!-- browser&#45;&gt;web -->
<g id="edge1" class="edge">
<title>browser&#45;&gt;web</title>
<path fill="none" stroke="#22d3ee" stroke-width="1.8" d="M907,-243.31C907,-272.81 907,-322.5 907,-322.5 907,-322.5 608.66,-322.5 608.66,-322.5"/>
<polygon fill="#22d3ee" stroke="#22d3ee" stroke-width="1.8" points="608.66,-319.88 601.16,-322.5 608.66,-325.13 608.66,-319.88"/>
<text text-anchor="middle" x="679.5" y="-257.2" font-family="PingFang SC" font-size="11.00" fill="#cbd5e1">REST / SSE / JWT</text>
</g>
<!-- gb_device&#45;&gt;zlm -->
<g id="edge19" class="edge">
<title>gb_device&#45;&gt;zlm</title>
<path fill="none" stroke="#60a5fa" stroke-width="1.8" d="M981.97,-142C981.97,-142 1331.98,-142 1331.98,-142"/>
<polygon fill="#60a5fa" stroke="#60a5fa" stroke-width="1.8" points="1331.98,-144.63 1339.48,-142 1331.98,-139.38 1331.98,-144.63"/>
<text text-anchor="middle" x="1172.5" y="-162.2" font-family="PingFang SC" font-size="11.00" fill="#cbd5e1">RTP 推流</text>
</g>
<!-- gb_device&#45;&gt;integration -->
<g id="edge17" class="edge">
<title>gb_device&#45;&gt;integration</title>
<path fill="none" stroke="#f59e0b" stroke-width="1.8" d="M981.98,-150C1100.77,-150 1318,-150 1318,-150 1318,-150 1318,-388.43 1318,-388.43"/>
<polygon fill="#f59e0b" stroke="#f59e0b" stroke-width="1.8" points="1315.38,-388.43 1318,-395.93 1320.63,-388.43 1315.38,-388.43"/>
<text text-anchor="middle" x="1172.5" y="-290.2" font-family="PingFang SC" font-size="11.00" fill="#cbd5e1">REGISTER / NOTIFY / RESPONSE</text>
</g>
<!-- zlm&#45;&gt;integration -->
<g id="edge21" class="edge">
<title>zlm&#45;&gt;integration</title>
<path fill="none" stroke="#60a5fa" stroke-width="1.8" d="M1398,-180.48C1398,-180.48 1398,-388.46 1398,-388.46"/>
<polygon fill="#60a5fa" stroke="#60a5fa" stroke-width="1.8" points="1395.38,-388.46 1398,-395.96 1400.63,-388.46 1395.38,-388.46"/>
</g>
<!-- web&#45;&gt;service -->
<g id="edge2" class="edge">
<title>web&#45;&gt;service</title>
<path fill="none" stroke="#86efac" stroke-width="1.8" d="M598.49,-347.5C682.95,-347.5 781,-347.5 781,-347.5 781,-347.5 781,-497.56 781,-497.56"/>
<polygon fill="#86efac" stroke="#86efac" stroke-width="1.8" points="778.38,-497.56 781,-505.06 783.63,-497.56 778.38,-497.56"/>
<text text-anchor="middle" x="679.5" y="-399.2" font-family="PingFang SC" font-size="11.00" fill="#cbd5e1">业务编排</text>
</g>
<!-- web&#45;&gt;manager -->
<g id="edge3" class="edge">
<title>web&#45;&gt;manager</title>
<path fill="none" stroke="#fdba74" stroke-width="1.8" d="M519,-366.3C519,-402.34 519,-460 519,-460 519,-460 1716.41,-460 1716.41,-460"/>
<polygon fill="#fdba74" stroke="#fdba74" stroke-width="1.8" points="1716.41,-462.63 1723.91,-460 1716.41,-457.38 1716.41,-462.63"/>
<text text-anchor="middle" x="1172.5" y="-354.2" font-family="PingFang SC" font-size="11.00" fill="#cbd5e1">简单 CRUD / DTO</text>
</g>
<!-- web&#45;&gt;integration -->
<g id="edge4" class="edge">
<title>web&#45;&gt;integration</title>
<path fill="none" stroke="#f9a8d4" stroke-width="1.8" d="M598.38,-335C827.72,-335 1306,-335 1306,-335 1306,-335 1306,-388.42 1306,-388.42"/>
<polygon fill="#f9a8d4" stroke="#f9a8d4" stroke-width="1.8" points="1303.38,-388.42 1306,-395.92 1308.63,-388.42 1303.38,-388.42"/>
<text text-anchor="middle" x="906.5" y="-403.2" font-family="PingFang SC" font-size="11.00" fill="#cbd5e1">ZLM Hook/API 入口</text>
</g>
<!-- web&#45;&gt;skywalking -->
<g id="edge22" class="edge">
<title>web&#45;&gt;skywalking</title>
<path fill="none" stroke="#64748b" stroke-width="1.8" stroke-dasharray="1,5" d="M439,-366.14C439,-427.42 439,-567.5 439,-567.5 439,-567.5 2547.86,-567.5 2547.86,-567.5"/>
<polygon fill="#64748b" stroke="#64748b" stroke-width="1.8" points="2547.86,-570.13 2555.36,-567.5 2547.86,-564.88 2547.86,-570.13"/>
<text text-anchor="middle" x="1642.5" y="-44.2" font-family="PingFang SC" font-size="11.00" fill="#cbd5e1">Trace</text>
</g>
<!-- service&#45;&gt;manager -->
<g id="edge5" class="edge">
<title>service&#45;&gt;manager</title>
<path fill="none" stroke="#bbf7d0" stroke-width="1.8" d="M1040,-507.63C1040,-489.74 1040,-470 1040,-470 1040,-470 1716.5,-470 1716.5,-470"/>
<polygon fill="#bbf7d0" stroke="#bbf7d0" stroke-width="1.8" points="1716.5,-472.63 1724,-470 1716.5,-467.38 1716.5,-472.63"/>
<text text-anchor="middle" x="1425.5" y="-552.2" font-family="PingFang SC" font-size="11.00" fill="#cbd5e1">领域服务调用 Manager</text>
</g>
<!-- service&#45;&gt;integration -->
<g id="edge6" class="edge">
<title>service&#45;&gt;integration</title>
<path fill="none" stroke="#f9a8d4" stroke-width="1.8" d="M1027,-507.71C1027,-478.24 1027,-436.33 1027,-436.33 1027,-436.33 1282.3,-436.33 1282.3,-436.33"/>
<polygon fill="#f9a8d4" stroke="#f9a8d4" stroke-width="1.8" points="1282.3,-438.96 1289.8,-436.33 1282.3,-433.71 1282.3,-438.96"/>
<text text-anchor="middle" x="1172.5" y="-525.2" font-family="PingFang SC" font-size="11.00" fill="#cbd5e1">协议命令 / ZLM 能力</text>
</g>
<!-- service&#45;&gt;redis -->
<g id="edge11" class="edge">
<title>service&#45;&gt;redis</title>
<path fill="none" stroke="#cbd5e1" stroke-width="1.8" d="M1052.35,-518.5C1453.9,-518.5 2546,-518.5 2546,-518.5 2546,-518.5 2546,-492.7 2546,-492.7"/>
<polygon fill="#cbd5e1" stroke="#cbd5e1" stroke-width="1.8" points="2548.63,-492.7 2546,-485.2 2543.38,-492.7 2548.63,-492.7"/>
<text text-anchor="middle" x="1871" y="-707.2" font-family="PingFang SC" font-size="11.00" fill="#cbd5e1">SSE PubSub / Live Registry</text>
</g>
<!-- service&#45;&gt;skywalking -->
<g id="edge23" class="edge">
<title>service&#45;&gt;skywalking</title>
<path fill="none" stroke="#64748b" stroke-width="1.8" stroke-dasharray="1,5" d="M1052.49,-552.33C1052.49,-552.33 2548.18,-552.33 2548.18,-552.33"/>
<polygon fill="#64748b" stroke="#64748b" stroke-width="1.8" points="2548.18,-554.96 2555.68,-552.33 2548.18,-549.71 2548.18,-554.96"/>
<text text-anchor="middle" x="1871" y="-813.2" font-family="PingFang SC" font-size="11.00" fill="#cbd5e1">Trace</text>
</g>
<!-- manager&#45;&gt;repository -->
<g id="edge8" class="edge">
<title>manager&#45;&gt;repository</title>
<path fill="none" stroke="#a5b4fc" stroke-width="1.8" d="M2015.45,-422.5C2134.54,-422.5 2284,-422.5 2284,-422.5 2284,-422.5 2284,-370.36 2284,-370.36"/>
<polygon fill="#a5b4fc" stroke="#a5b4fc" stroke-width="1.8" points="2286.63,-370.36 2284,-362.86 2281.38,-370.36 2286.63,-370.36"/>
<text text-anchor="middle" x="2102" y="-385.2" font-family="PingFang SC" font-size="11.00" fill="#cbd5e1">DTO ↔ DO / IService</text>
</g>
<!-- manager&#45;&gt;redis -->
<g id="edge12" class="edge">
<title>manager&#45;&gt;redis</title>
<path fill="none" stroke="#cbd5e1" stroke-width="1.8" d="M2015.07,-450.5C2015.07,-450.5 2521.39,-450.5 2521.39,-450.5"/>
<polygon fill="#cbd5e1" stroke="#cbd5e1" stroke-width="1.8" points="2521.39,-453.13 2528.89,-450.5 2521.39,-447.88 2521.39,-453.13"/>
<text text-anchor="middle" x="2283.5" y="-457.2" font-family="PingFang SC" font-size="11.00" fill="#cbd5e1">节点亲和路由 / 延迟双删</text>
</g>
<!-- integration&#45;&gt;gb_device -->
<g id="edge18" class="edge">
<title>integration&#45;&gt;gb_device</title>
<path fill="none" stroke="#f59e0b" stroke-width="1.8" d="M1331,-398.51C1331,-327.07 1331,-146 1331,-146 1331,-146 992.13,-146 992.13,-146"/>
<polygon fill="#f59e0b" stroke="#f59e0b" stroke-width="1.8" points="992.13,-143.38 984.63,-146 992.13,-148.63 992.13,-143.38"/>
<text text-anchor="middle" x="1172.5" y="-226.2" font-family="PingFang SC" font-size="11.00" fill="#cbd5e1">MESSAGE / INVITE / BYE</text>
</g>
<!-- integration&#45;&gt;zlm -->
<g id="edge20" class="edge">
<title>integration&#45;&gt;zlm</title>
<path fill="none" stroke="#60a5fa" stroke-width="1.8" d="M1454,-398.57C1454,-398.57 1454,-190.51 1454,-190.51"/>
<polygon fill="#60a5fa" stroke="#60a5fa" stroke-width="1.8" points="1456.63,-190.51 1454,-183.01 1451.38,-190.51 1456.63,-190.51"/>
</g>
<!-- integration&#45;&gt;manager -->
<g id="edge7" class="edge">
<title>integration&#45;&gt;manager</title>
<path fill="none" stroke="#fdba74" stroke-width="1.8" d="M1558.26,-437C1558.26,-437 1716.57,-437 1716.57,-437"/>
<polygon fill="#fdba74" stroke="#fdba74" stroke-width="1.8" points="1716.57,-439.63 1724.07,-437 1716.57,-434.38 1716.57,-439.63"/>
<text text-anchor="middle" x="1642.5" y="-443.2" font-family="PingFang SC" font-size="11.00" fill="#cbd5e1">回调落库 / 状态同步</text>
</g>
<!-- integration&#45;&gt;skywalking -->
<g id="edge24" class="edge">
<title>integration&#45;&gt;skywalking</title>
<path fill="none" stroke="#64748b" stroke-width="1.8" stroke-dasharray="1,5" d="M1426,-455.39C1426,-489.06 1426,-540.67 1426,-540.67 1426,-540.67 2547.92,-540.67 2547.92,-540.67"/>
<polygon fill="#64748b" stroke="#64748b" stroke-width="1.8" points="2547.92,-543.29 2555.42,-540.67 2547.92,-538.04 2547.92,-543.29"/>
<text text-anchor="middle" x="2102" y="-612.2" font-family="PingFang SC" font-size="11.00" fill="#cbd5e1">SIP/ZLM Trace</text>
</g>
<!-- repository&#45;&gt;db -->
<g id="edge9" class="edge">
<title>repository&#45;&gt;db</title>
<path fill="none" stroke="#cbd5e1" stroke-width="1.8" d="M2378.41,-344.67C2378.41,-344.67 2532.94,-344.67 2532.94,-344.67"/>
<polygon fill="#cbd5e1" stroke="#cbd5e1" stroke-width="1.8" points="2532.94,-347.29 2540.44,-344.67 2532.94,-342.04 2532.94,-347.29"/>
<text text-anchor="middle" x="2455" y="-3.2" font-family="PingFang SC" font-size="11.00" fill="#cbd5e1">MyBatis&#45;Plus</text>
</g>
<!-- repository&#45;&gt;redis -->
<g id="edge10" class="edge">
<title>repository&#45;&gt;redis</title>
<path fill="none" stroke="#cbd5e1" stroke-width="1.8" d="M2378.27,-352.33C2450.62,-352.33 2538,-352.33 2538,-352.33 2538,-352.33 2538,-415.46 2538,-415.46"/>
<polygon fill="#cbd5e1" stroke="#cbd5e1" stroke-width="1.8" points="2535.38,-415.46 2538,-422.96 2540.63,-415.46 2535.38,-415.46"/>
<text text-anchor="middle" x="2455" y="-375.2" font-family="PingFang SC" font-size="11.00" fill="#cbd5e1">@Cached / Lock</text>
</g>
<!-- client_common&#45;&gt;web -->
<g id="edge13" class="edge">
<title>client_common&#45;&gt;web</title>
<path fill="none" stroke="#64748b" stroke-width="1.8" stroke-dasharray="5,2" d="M68,-478.71C68,-430.6 68,-338 68,-338 68,-338 348.44,-338 348.44,-338"/>
<polygon fill="#64748b" stroke="#64748b" stroke-width="1.8" points="348.44,-340.63 355.94,-338 348.44,-335.38 348.44,-340.63"/>
<text text-anchor="middle" x="291.5" y="-399.2" font-family="PingFang SC" font-size="11.00" fill="#cbd5e1">Req/VO/常量</text>
</g>
<!-- client_common&#45;&gt;service -->
<g id="edge14" class="edge">
<title>client_common&#45;&gt;service</title>
<path fill="none" stroke="#64748b" stroke-width="1.8" stroke-dasharray="5,2" d="M224.44,-521.5C224.44,-521.5 750.56,-521.5 750.56,-521.5"/>
<polygon fill="#64748b" stroke="#64748b" stroke-width="1.8" points="750.56,-524.13 758.06,-521.5 750.56,-518.88 750.56,-524.13"/>
<text text-anchor="middle" x="478.5" y="-558.2" font-family="PingFang SC" font-size="11.00" fill="#cbd5e1">Service 契约</text>
</g>
<!-- client_common&#45;&gt;manager -->
<g id="edge15" class="edge">
<title>client_common&#45;&gt;manager</title>
<path fill="none" stroke="#64748b" stroke-width="1.8" stroke-dasharray="5,2" d="M172,-478.75C172,-471.15 172,-465 172,-465 172,-465 1716.29,-465 1716.29,-465"/>
<polygon fill="#64748b" stroke="#64748b" stroke-width="1.8" points="1716.29,-467.63 1723.79,-465 1716.29,-462.38 1716.29,-467.63"/>
<text text-anchor="middle" x="906.5" y="-661.2" font-family="PingFang SC" font-size="11.00" fill="#cbd5e1">DTO / 事件模型</text>
</g>
<!-- client_common&#45;&gt;integration -->
<g id="edge16" class="edge">
<title>client_common&#45;&gt;integration</title>
<path fill="none" stroke="#64748b" stroke-width="1.8" stroke-dasharray="5,2" d="M120,-478.73C120,-452.56 120,-417.67 120,-417.67 120,-417.67 1282.31,-417.67 1282.31,-417.67"/>
<polygon fill="#64748b" stroke="#64748b" stroke-width="1.8" points="1282.31,-420.29 1289.81,-417.67 1282.31,-415.04 1282.31,-420.29"/>
<text text-anchor="middle" x="679.5" y="-463.2" font-family="PingFang SC" font-size="11.00" fill="#cbd5e1">ResultDTO / Event</text>
</g>
<!-- browser -->
<g id="node1" class="node">
<title>browser</title>
<path fill="#0f766e" stroke="#14b8a6" stroke-width="1.4" d="M1001.5,-243C1001.5,-243 811.5,-243 811.5,-243 805.5,-243 799.5,-237 799.5,-231 799.5,-231 799.5,-213 799.5,-213 799.5,-207 805.5,-201 811.5,-201 811.5,-201 1001.5,-201 1001.5,-201 1007.5,-201 1013.5,-207 1013.5,-213 1013.5,-213 1013.5,-231 1013.5,-231 1013.5,-237 1007.5,-243 1001.5,-243"/>
<text text-anchor="middle" x="906.5" y="-225.6" font-family="PingFang SC" font-size="13.00" fill="#e5e7eb">Web Console</text>
<text text-anchor="middle" x="906.5" y="-211.6" font-family="PingFang SC" font-size="13.00" fill="#e5e7eb">vue&#45;vben&#45;admin / Protocol Lab</text>
</g>
<!-- gb_device -->
<g id="node2" class="node">
<title>gb_device</title>
<path fill="#92400e" stroke="#f59e0b" stroke-width="1.4" d="M969.5,-154C969.5,-154 843.5,-154 843.5,-154 837.5,-154 831.5,-148 831.5,-142 831.5,-142 831.5,-124 831.5,-124 831.5,-118 837.5,-112 843.5,-112 843.5,-112 969.5,-112 969.5,-112 975.5,-112 981.5,-118 981.5,-124 981.5,-124 981.5,-142 981.5,-142 981.5,-148 975.5,-154 969.5,-154"/>
<text text-anchor="middle" x="906.5" y="-136.6" font-family="PingFang SC" font-size="13.00" fill="#e5e7eb">IPC / NVR / 下级平台</text>
<text text-anchor="middle" x="906.5" y="-122.6" font-family="PingFang SC" font-size="13.00" fill="#e5e7eb">GB28181 SIP + RTP</text>
</g>
<!-- zlm -->
<g id="node3" class="node">
<title>zlm</title>
<path fill="#1d4ed8" stroke="#60a5fa" stroke-width="1.4" d="M1496.5,-180C1496.5,-180 1354.5,-180 1354.5,-180 1348.5,-180 1342.5,-174 1342.5,-168 1342.5,-168 1342.5,-150 1342.5,-150 1342.5,-144 1348.5,-138 1354.5,-138 1354.5,-138 1496.5,-138 1496.5,-138 1502.5,-138 1508.5,-144 1508.5,-150 1508.5,-150 1508.5,-168 1508.5,-168 1508.5,-174 1502.5,-180 1496.5,-180"/>
<text text-anchor="middle" x="1425.5" y="-162.6" font-family="PingFang SC" font-size="13.00" fill="#e5e7eb">ZLMediaKit</text>
<text text-anchor="middle" x="1425.5" y="-148.6" font-family="PingFang SC" font-size="13.00" fill="#e5e7eb">HTTP API / Hook / RTP</text>
</g>
<!-- web -->
<g id="node4" class="node">
<title>web</title>
<path fill="#075985" stroke="#38bdf8" stroke-width="1.4" d="M586,-366C586,-366 371,-366 371,-366 365,-366 359,-360 359,-354 359,-354 359,-322 359,-322 359,-316 365,-310 371,-310 371,-310 586,-310 586,-310 592,-310 598,-316 598,-322 598,-322 598,-354 598,-354 598,-360 592,-366 586,-366"/>
<text text-anchor="middle" x="478.5" y="-348.6" font-family="PingFang SC" font-size="13.00" fill="#e5e7eb">voglander&#45;web</text>
<text text-anchor="middle" x="478.5" y="-334.6" font-family="PingFang SC" font-size="13.00" fill="#e5e7eb">Controller / Filter / Interceptor</text>
<text text-anchor="middle" x="478.5" y="-320.6" font-family="PingFang SC" font-size="13.00" fill="#e5e7eb">SSE / Internal API / ApplicationWeb</text>
</g>
<!-- service -->
<g id="node5" class="node">
<title>service</title>
<path fill="#166534" stroke="#4ade80" stroke-width="1.4" d="M1040,-564C1040,-564 773,-564 773,-564 767,-564 761,-558 761,-552 761,-552 761,-520 761,-520 761,-514 767,-508 773,-508 773,-508 1040,-508 1040,-508 1046,-508 1052,-514 1052,-520 1052,-520 1052,-552 1052,-552 1052,-558 1046,-564 1040,-564"/>
<text text-anchor="middle" x="906.5" y="-546.6" font-family="PingFang SC" font-size="13.00" fill="#e5e7eb">voglander&#45;service</text>
<text text-anchor="middle" x="906.5" y="-532.6" font-family="PingFang SC" font-size="13.00" fill="#e5e7eb">MediaPlayService / DeviceAgreementService</text>
<text text-anchor="middle" x="906.5" y="-518.6" font-family="PingFang SC" font-size="13.00" fill="#e5e7eb">SSE EventBus / Stream Biz / Register</text>
</g>
<!-- manager -->
<g id="node6" class="node">
<title>manager</title>
<path fill="#7c2d12" stroke="#fb923c" stroke-width="1.4" d="M2003,-475C2003,-475 1739,-475 1739,-475 1733,-475 1727,-469 1727,-463 1727,-463 1727,-431 1727,-431 1727,-425 1733,-419 1739,-419 1739,-419 2003,-419 2003,-419 2009,-419 2015,-425 2015,-431 2015,-431 2015,-463 2015,-463 2015,-469 2009,-475 2003,-475"/>
<text text-anchor="middle" x="1871" y="-457.6" font-family="PingFang SC" font-size="13.00" fill="#e5e7eb">voglander&#45;manager</text>
<text text-anchor="middle" x="1871" y="-443.6" font-family="PingFang SC" font-size="13.00" fill="#e5e7eb">Manager 模板 / Service Impl / Assembler</text>
<text text-anchor="middle" x="1871" y="-429.6" font-family="PingFang SC" font-size="13.00" fill="#e5e7eb">Event Shard / Protocol Route / Node Route</text>
</g>
<!-- integration -->
<g id="node7" class="node">
<title>integration</title>
<path fill="#831843" stroke="#f472b6" stroke-width="1.4" d="M1546,-455C1546,-455 1305,-455 1305,-455 1299,-455 1293,-449 1293,-443 1293,-443 1293,-411 1293,-411 1293,-405 1299,-399 1305,-399 1305,-399 1546,-399 1546,-399 1552,-399 1558,-405 1558,-411 1558,-411 1558,-443 1558,-443 1558,-449 1552,-455 1546,-455"/>
<text text-anchor="middle" x="1425.5" y="-437.6" font-family="PingFang SC" font-size="13.00" fill="#e5e7eb">voglander&#45;integration</text>
<text text-anchor="middle" x="1425.5" y="-423.6" font-family="PingFang SC" font-size="13.00" fill="#e5e7eb">GB28181 Notifier + Command + Supplier</text>
<text text-anchor="middle" x="1425.5" y="-409.6" font-family="PingFang SC" font-size="13.00" fill="#e5e7eb">ZLM Wrapper + Hook / EasyExcel</text>
</g>
<!-- repository -->
<g id="node8" class="node">
<title>repository</title>
<path fill="#312e81" stroke="#818cf8" stroke-width="1.4" d="M2366,-360C2366,-360 2201,-360 2201,-360 2195,-360 2189,-354 2189,-348 2189,-348 2189,-316 2189,-316 2189,-310 2195,-304 2201,-304 2201,-304 2366,-304 2366,-304 2372,-304 2378,-310 2378,-316 2378,-316 2378,-348 2378,-348 2378,-354 2372,-360 2366,-360"/>
<text text-anchor="middle" x="2283.5" y="-342.6" font-family="PingFang SC" font-size="13.00" fill="#e5e7eb">voglander&#45;repository</text>
<text text-anchor="middle" x="2283.5" y="-328.6" font-family="PingFang SC" font-size="13.00" fill="#e5e7eb">DO / Mapper / RedisCache</text>
<text text-anchor="middle" x="2283.5" y="-314.6" font-family="PingFang SC" font-size="13.00" fill="#e5e7eb">@Cached / RedisLock</text>
</g>
<!-- client_common -->
<g id="node9" class="node">
<title>client_common</title>
<path fill="#334155" stroke="#94a3b8" stroke-width="1.4" d="M212,-535C212,-535 28,-535 28,-535 22,-535 16,-529 16,-523 16,-523 16,-491 16,-491 16,-485 22,-479 28,-479 28,-479 212,-479 212,-479 218,-479 224,-485 224,-491 224,-491 224,-523 224,-523 224,-529 218,-535 212,-535"/>
<text text-anchor="middle" x="120" y="-517.6" font-family="PingFang SC" font-size="13.00" fill="#e5e7eb">voglander&#45;client + common</text>
<text text-anchor="middle" x="120" y="-503.6" font-family="PingFang SC" font-size="13.00" fill="#e5e7eb">接口契约 / DTO&#45;QO / 常量枚举</text>
<text text-anchor="middle" x="120" y="-489.6" font-family="PingFang SC" font-size="13.00" fill="#e5e7eb">AjaxResult / ServiceException</text>
</g>
<!-- db -->
<g id="node10" class="node">
<title>db</title>
<path fill="#1f2937" stroke="#64748b" stroke-width="1.4" d="M2699.5,-379C2699.5,-379 2555.5,-379 2555.5,-379 2549.5,-379 2543.5,-373 2543.5,-367 2543.5,-367 2543.5,-349 2543.5,-349 2543.5,-343 2549.5,-337 2555.5,-337 2555.5,-337 2699.5,-337 2699.5,-337 2705.5,-337 2711.5,-343 2711.5,-349 2711.5,-349 2711.5,-367 2711.5,-367 2711.5,-373 2705.5,-379 2699.5,-379"/>
<text text-anchor="middle" x="2627.5" y="-361.6" font-family="PingFang SC" font-size="13.00" fill="#e5e7eb">MySQL / SQLite</text>
<text text-anchor="middle" x="2627.5" y="-347.6" font-family="PingFang SC" font-size="13.00" fill="#e5e7eb">业务表 + 会话 + 菜单权限</text>
</g>
<!-- redis -->
<g id="node11" class="node">
<title>redis</title>
<path fill="#1f2937" stroke="#64748b" stroke-width="1.4" d="M2711,-482C2711,-482 2544,-482 2544,-482 2538,-482 2532,-476 2532,-470 2532,-470 2532,-438 2532,-438 2532,-432 2538,-426 2544,-426 2544,-426 2711,-426 2711,-426 2717,-426 2723,-432 2723,-438 2723,-438 2723,-470 2723,-470 2723,-476 2717,-482 2711,-482"/>
<text text-anchor="middle" x="2627.5" y="-464.6" font-family="PingFang SC" font-size="13.00" fill="#e5e7eb">Redis</text>
<text text-anchor="middle" x="2627.5" y="-450.6" font-family="PingFang SC" font-size="13.00" fill="#e5e7eb">缓存 / 分布式锁 / PubSub</text>
<text text-anchor="middle" x="2627.5" y="-436.6" font-family="PingFang SC" font-size="13.00" fill="#e5e7eb">设备节点路由 / Live Registry</text>
</g>
<!-- skywalking -->
<g id="node12" class="node">
<title>skywalking</title>
<path fill="#1f2937" stroke="#64748b" stroke-width="1.4" d="M2684.5,-571C2684.5,-571 2570.5,-571 2570.5,-571 2564.5,-571 2558.5,-565 2558.5,-559 2558.5,-559 2558.5,-541 2558.5,-541 2558.5,-535 2564.5,-529 2570.5,-529 2570.5,-529 2684.5,-529 2684.5,-529 2690.5,-529 2696.5,-535 2696.5,-541 2696.5,-541 2696.5,-559 2696.5,-559 2696.5,-565 2690.5,-571 2684.5,-571"/>
<text text-anchor="middle" x="2627.5" y="-553.6" font-family="PingFang SC" font-size="13.00" fill="#e5e7eb">SkyWalking</text>
<text text-anchor="middle" x="2627.5" y="-539.6" font-family="PingFang SC" font-size="13.00" fill="#e5e7eb">链路追踪 / 日志关联</text>
</g>
</g>
</svg>
