<svg xmlns="http://www.w3.org/2000/svg" width="1920" height="1200" viewBox="0 0 1920 1200">
<defs>
  <linearGradient id="bg" x1="0" y1="0" x2="1" y2="1">
    <stop offset="0" stop-color="#07111F"/>
    <stop offset="0.52" stop-color="#0B1020"/>
    <stop offset="1" stop-color="#111827"/>
  </linearGradient>
  <radialGradient id="haloA" cx="24%" cy="18%" r="58%"><stop offset="0" stop-color="#0EA5E9" stop-opacity="0.24"/><stop offset="1" stop-color="#0EA5E9" stop-opacity="0"/></radialGradient>
  <radialGradient id="haloB" cx="80%" cy="78%" r="52%"><stop offset="0" stop-color="#F97316" stop-opacity="0.16"/><stop offset="1" stop-color="#F97316" stop-opacity="0"/></radialGradient>
  <pattern id="grid" width="38" height="38" patternUnits="userSpaceOnUse"><path d="M 38 0 L 0 0 0 38" fill="none" stroke="#1E293B" stroke-width="0.7" opacity="0.58"/></pattern>
  <filter id="shadow" x="-20%" y="-20%" width="140%" height="140%"><feDropShadow dx="0" dy="14" stdDeviation="16" flood-color="#000000" flood-opacity="0.34"/></filter>
  <marker id="arrow" markerWidth="12" markerHeight="12" refX="10" refY="6" orient="auto" markerUnits="strokeWidth"><path d="M2,2 L10,6 L2,10 Z" fill="#CBD5E1"/></marker>
  <marker id="arrowOrange" markerWidth="12" markerHeight="12" refX="10" refY="6" orient="auto" markerUnits="strokeWidth"><path d="M2,2 L10,6 L2,10 Z" fill="#F59E0B"/></marker>
  <marker id="arrowBlue" markerWidth="12" markerHeight="12" refX="10" refY="6" orient="auto" markerUnits="strokeWidth"><path d="M2,2 L10,6 L2,10 Z" fill="#38BDF8"/></marker>
  <marker id="arrowGreen" markerWidth="12" markerHeight="12" refX="10" refY="6" orient="auto" markerUnits="strokeWidth"><path d="M2,2 L10,6 L2,10 Z" fill="#4ADE80"/></marker>
  <marker id="arrowPink" markerWidth="12" markerHeight="12" refX="10" refY="6" orient="auto" markerUnits="strokeWidth"><path d="M2,2 L10,6 L2,10 Z" fill="#F472B6"/></marker>
  <style>text { font-family: "PingFang SC", "Microsoft YaHei", "Noto Sans CJK SC", Arial, sans-serif; }.panel { filter: url(#shadow); }.card { filter: url(#shadow); }</style>
</defs>
<rect width="1920" height="1200" fill="url(#bg)"/>
<rect width="1920" height="1200" fill="url(#grid)" opacity="0.42"/>
<rect width="1920" height="1200" fill="url(#haloA)"/>
<rect width="1920" height="1200" fill="url(#haloB)"/>
<text x="960" y="58" font-size="34" fill="#F8FAFC" font-weight="820" text-anchor="middle" opacity="1"><tspan x="960" dy="0">Voglander 当前架构总览</tspan></text>
<text x="960" y="91" font-size="16" fill="#94A3B8" font-weight="520" text-anchor="middle" opacity="1"><tspan x="960" dy="0">Spring Boot 3.5.3 · Java 17 · GB28181 / ZLM / SSE · 生成日期 2026-06-29</tspan></text>
<rect class="" x="1518" y="70" width="352" height="44" rx="22" fill="#0F172A" stroke="#334155" stroke-width="1.0" opacity="0.88"/>
<text x="1694" y="99" font-size="13" fill="#CBD5E1" font-weight="550" text-anchor="middle" opacity="1"><tspan x="1694" dy="0">实线=调用/数据流  虚线=契约/观测  颜色=领域边界</tspan></text>
<rect class="panel" x="50" y="140" width="300" height="800" rx="28" fill="#0F172A" stroke="#334155" stroke-width="1.4" opacity="0.95"/>
<text x="78" y="184" font-size="22" fill="#FDE68A" font-weight="820" text-anchor="start" opacity="1"><tspan x="78" dy="0">接入端 &amp; 外部系统</tspan></text>
<rect class="panel" x="390" y="125" width="1130" height="840" rx="30" fill="#0F172A" stroke="#334155" stroke-width="1.4" opacity="0.94"/>
<text x="420" y="169" font-size="24" fill="#BAE6FD" font-weight="820" text-anchor="start" opacity="1"><tspan x="420" dy="0">Voglander 后端应用</tspan></text>
<text x="725" y="169" font-size="15" fill="#94A3B8" font-weight="520" text-anchor="start" opacity="1"><tspan x="725" dy="0">严格分层 · Manager 模板方法 · 协议 SPI 路由 · 异步事件分片</tspan></text>
<rect class="panel" x="1570" y="140" width="300" height="800" rx="28" fill="#0F172A" stroke="#334155" stroke-width="1.4" opacity="0.95"/>
<text x="1598" y="184" font-size="22" fill="#D1D5DB" font-weight="820" text-anchor="start" opacity="1"><tspan x="1598" dy="0">基础设施</tspan></text>
<rect class="card" x="80" y="225" width="240" height="105" rx="22" fill="#0F3E3B" stroke="#14B8A6" stroke-width="1.8" opacity="1"/>
<rect x="80" y="225" width="240" height="7" rx="3.5" fill="#14B8A6" opacity="0.95"/>
<text x="104" y="263" font-size="18" fill="#F8FAFC" font-weight="750" text-anchor="start" opacity="1"><tspan x="104" dy="0">Web 控制台</tspan></text>
<text x="104" y="292" font-size="13" fill="#CBD5E1" font-weight="450" text-anchor="start" opacity="1"><tspan x="104" dy="0">管理后台 / 监控大屏</tspan><tspan x="104" dy="20">Protocol Lab / SSE 订阅</tspan></text>
<rect class="card" x="80" y="385" width="240" height="112" rx="22" fill="#4A2B0A" stroke="#F59E0B" stroke-width="1.8" opacity="1"/>
<rect x="80" y="385" width="240" height="7" rx="3.5" fill="#F59E0B" opacity="0.95"/>
<text x="104" y="423" font-size="18" fill="#F8FAFC" font-weight="750" text-anchor="start" opacity="1"><tspan x="104" dy="0">GB28181 设备</tspan></text>
<text x="104" y="452" font-size="13" fill="#CBD5E1" font-weight="450" text-anchor="start" opacity="1"><tspan x="104" dy="0">IPC / NVR / 下级平台</tspan><tspan x="104" dy="20">REGISTER / NOTIFY / RTP</tspan></text>
<rect class="card" x="80" y="555" width="240" height="112" rx="22" fill="#123766" stroke="#60A5FA" stroke-width="1.8" opacity="1"/>
<rect x="80" y="555" width="240" height="7" rx="3.5" fill="#60A5FA" opacity="0.95"/>
<text x="104" y="593" font-size="18" fill="#F8FAFC" font-weight="750" text-anchor="start" opacity="1"><tspan x="104" dy="0">ZLMediaKit</tspan></text>
<text x="104" y="622" font-size="13" fill="#CBD5E1" font-weight="450" text-anchor="start" opacity="1"><tspan x="104" dy="0">RTP 收流 / 播放地址</tspan><tspan x="104" dy="20">HTTP API / Hook 回调</tspan></text>
<rect class="card" x="80" y="725" width="240" height="105" rx="22" fill="#30245F" stroke="#A78BFA" stroke-width="1.8" opacity="1"/>
<rect x="80" y="725" width="240" height="7" rx="3.5" fill="#A78BFA" opacity="0.95"/>
<text x="104" y="763" font-size="18" fill="#F8FAFC" font-weight="750" text-anchor="start" opacity="1"><tspan x="104" dy="0">运维 &amp; 观测</tspan></text>
<text x="104" y="792" font-size="13" fill="#CBD5E1" font-weight="450" text-anchor="start" opacity="1"><tspan x="104" dy="0">Swagger / Actuator</tspan><tspan x="104" dy="20">日志 / 链路追踪</tspan></text>
<rect class="card" x="610" y="215" width="690" height="116" rx="22" fill="#0B3B55" stroke="#38BDF8" stroke-width="1.8" opacity="1"/>
<rect x="610" y="215" width="690" height="7" rx="3.5" fill="#38BDF8" opacity="0.95"/>
<text x="634" y="253" font-size="19" fill="#F8FAFC" font-weight="750" text-anchor="start" opacity="1"><tspan x="634" dy="0">voglander-web</tspan></text>
<text x="634" y="282" font-size="13" fill="#CBD5E1" font-weight="450" text-anchor="start" opacity="1"><tspan x="634" dy="0">Controller / Req-VO / AjaxResult / @Valid</tspan><tspan x="634" dy="20">Filter / Interceptor / SSE / Internal API</tspan><tspan x="634" dy="20">ApplicationWeb: @EnableSipServer + @EnableScheduling</tspan></text>
<rect class="card" x="455" y="395" width="445" height="126" rx="22" fill="#0E3B21" stroke="#4ADE80" stroke-width="1.8" opacity="1"/>
<rect x="455" y="395" width="445" height="7" rx="3.5" fill="#4ADE80" opacity="0.95"/>
<text x="479" y="433" font-size="18" fill="#F8FAFC" font-weight="750" text-anchor="start" opacity="1"><tspan x="479" dy="0">voglander-service</tspan></text>
<text x="479" y="462" font-size="13" fill="#CBD5E1" font-weight="450" text-anchor="start" opacity="1"><tspan x="479" dy="0">领域服务编排：MediaPlayService / StreamProxyBiz</tspan><tspan x="479" dy="20">协议路由：DeviceAgreementService / MediaProtocolRouter</tspan><tspan x="479" dy="20">实时通道：RedisBackedSseEventBus / LiveRegistry</tspan></text>
<rect class="card" x="965" y="395" width="445" height="126" rx="22" fill="#541A38" stroke="#F472B6" stroke-width="1.8" opacity="1"/>
<rect x="965" y="395" width="445" height="7" rx="3.5" fill="#F472B6" opacity="0.95"/>
<text x="989" y="433" font-size="18" fill="#F8FAFC" font-weight="750" text-anchor="start" opacity="1"><tspan x="989" dy="0">voglander-integration</tspan></text>
<text x="989" y="462" font-size="13" fill="#CBD5E1" font-weight="450" text-anchor="start" opacity="1"><tspan x="989" dy="0">GB28181：Notifier / Command / Supplier / Store / Trace</tspan><tspan x="989" dy="20">ZLM：Wrapper / Hook / NodeSupplier</tspan><tspan x="989" dy="20">EasyExcel / IP / ResultDTO 异常包装</tspan></text>
<rect class="card" x="610" y="605" width="690" height="126" rx="22" fill="#55270D" stroke="#FB923C" stroke-width="1.8" opacity="1"/>
<rect x="610" y="605" width="690" height="7" rx="3.5" fill="#FB923C" opacity="0.95"/>
<text x="634" y="643" font-size="18" fill="#F8FAFC" font-weight="750" text-anchor="start" opacity="1"><tspan x="634" dy="0">voglander-manager</tspan></text>
<text x="634" y="672" font-size="13" fill="#CBD5E1" font-weight="450" text-anchor="start" opacity="1"><tspan x="634" dy="0">业务编排：Device / Channel / MediaSession / Cascade / RBAC</tspan><tspan x="634" dy="20">事件管线：ShardDispatcher → InboundEventDispatcher</tspan><tspan x="634" dy="20">节点路由：DeviceNodeRoute / NodeAlive / InternalForward</tspan></text>
<rect class="card" x="690" y="790" width="530" height="112" rx="22" fill="#27245C" stroke="#818CF8" stroke-width="1.8" opacity="1"/>
<rect x="690" y="790" width="530" height="7" rx="3.5" fill="#818CF8" opacity="0.95"/>
<text x="714" y="828" font-size="18" fill="#F8FAFC" font-weight="750" text-anchor="start" opacity="1"><tspan x="714" dy="0">voglander-repository</tspan></text>
<text x="714" y="857" font-size="13" fill="#CBD5E1" font-weight="450" text-anchor="start" opacity="1"><tspan x="714" dy="0">DO / Mapper / MyBatis-Plus IService</tspan><tspan x="714" dy="20">RedisCache / @Cached / RedisLockUtil</tspan><tspan x="714" dy="20">SQLite 开发测试，MySQL 生产</tspan></text>
<rect class="card" x="455" y="920" width="955" height="52" rx="22" fill="#1F2937" stroke="#94A3B8" stroke-width="1.8" opacity="1"/>
<rect x="455" y="920" width="955" height="7" rx="3.5" fill="#94A3B8" opacity="0.95"/>
<text x="479" y="958" font-size="17" fill="#F8FAFC" font-weight="750" text-anchor="start" opacity="1"><tspan x="479" dy="0">voglander-client + voglander-common</tspan></text>
<text x="479" y="987" font-size="13" fill="#CBD5E1" font-weight="450" text-anchor="start" opacity="1"><tspan x="479" dy="0">服务契约、DTO/QO、协议无关 DeviceEvent、常量枚举、AjaxResult、ServiceException</tspan></text>
<rect class="card" x="1600" y="250" width="240" height="105" rx="22" fill="#1F2937" stroke="#94A3B8" stroke-width="1.8" opacity="1"/>
<rect x="1600" y="250" width="240" height="7" rx="3.5" fill="#94A3B8" opacity="0.95"/>
<text x="1624" y="288" font-size="18" fill="#F8FAFC" font-weight="750" text-anchor="start" opacity="1"><tspan x="1624" dy="0">MySQL / SQLite</tspan></text>
<text x="1624" y="317" font-size="13" fill="#CBD5E1" font-weight="450" text-anchor="start" opacity="1"><tspan x="1624" dy="0">业务表 / 会话表</tspan><tspan x="1624" dy="20">菜单权限 / 配置数据</tspan></text>
<rect class="card" x="1600" y="420" width="240" height="128" rx="22" fill="#3A1414" stroke="#EF4444" stroke-width="1.8" opacity="1"/>
<rect x="1600" y="420" width="240" height="7" rx="3.5" fill="#EF4444" opacity="0.95"/>
<text x="1624" y="458" font-size="18" fill="#F8FAFC" font-weight="750" text-anchor="start" opacity="1"><tspan x="1624" dy="0">Redis</tspan></text>
<text x="1624" y="487" font-size="13" fill="#CBD5E1" font-weight="450" text-anchor="start" opacity="1"><tspan x="1624" dy="0">缓存 / 分布式锁</tspan><tspan x="1624" dy="20">SSE Pub/Sub</tspan><tspan x="1624" dy="20">InviteContext / LiveRegistry</tspan><tspan x="1624" dy="20">设备节点亲和路由</tspan></text>
<rect class="card" x="1600" y="625" width="240" height="105" rx="22" fill="#30245F" stroke="#A78BFA" stroke-width="1.8" opacity="1"/>
<rect x="1600" y="625" width="240" height="7" rx="3.5" fill="#A78BFA" opacity="0.95"/>
<text x="1624" y="663" font-size="18" fill="#F8FAFC" font-weight="750" text-anchor="start" opacity="1"><tspan x="1624" dy="0">SkyWalking</tspan></text>
<text x="1624" y="692" font-size="13" fill="#CBD5E1" font-weight="450" text-anchor="start" opacity="1"><tspan x="1624" dy="0">链路追踪</tspan><tspan x="1624" dy="20">日志 traceId 关联</tspan></text>
<rect class="card" x="1600" y="785" width="240" height="105" rx="22" fill="#14351D" stroke="#22C55E" stroke-width="1.8" opacity="1"/>
<rect x="1600" y="785" width="240" height="7" rx="3.5" fill="#22C55E" opacity="0.95"/>
<text x="1624" y="823" font-size="18" fill="#F8FAFC" font-weight="750" text-anchor="start" opacity="1"><tspan x="1624" dy="0">JaCoCo / Tests</tspan></text>
<text x="1624" y="852" font-size="13" fill="#CBD5E1" font-weight="450" text-anchor="start" opacity="1"><tspan x="1624" dy="0">web 模块集中测试</tspan><tspan x="1624" dy="20">聚合覆盖率报告</tspan></text>
<polyline points="320,277 610,277" fill="none" stroke="#22D3EE" stroke-width="3.0" stroke-linecap="round" stroke-linejoin="round" marker-end="url(#arrowBlue)"/><rect x="358.0" y="237" width="192" height="28" rx="14" fill="#0B1020" stroke="#22D3EE" stroke-width="1.3" opacity="0.96"/><text x="454" y="257" font-size="12" fill="#F8FAFC" font-weight="650" text-anchor="middle" opacity="1"><tspan x="454" dy="0">REST / SSE / JWT</tspan></text>
<polyline points="320,435 360,435 360,360 965,360 965,395" fill="none" stroke="#F59E0B" stroke-width="3.0" stroke-linecap="round" stroke-linejoin="round" marker-end="url(#arrowOrange)"/><rect x="592.0" y="327" width="96" height="28" rx="14" fill="#0B1020" stroke="#F59E0B" stroke-width="1.3" opacity="0.96"/><text x="640" y="347" font-size="12" fill="#F8FAFC" font-weight="650" text-anchor="middle" opacity="1"><tspan x="640" dy="0">SIP 入站事件</tspan></text>
<polyline points="965,378 360,378 360,478 320,478" fill="none" stroke="#F59E0B" stroke-width="2.7" stroke-linecap="round" stroke-linejoin="round" marker-end="url(#arrowOrange)"/><rect x="592.0" y="373" width="96" height="28" rx="14" fill="#0B1020" stroke="#F59E0B" stroke-width="1.3" opacity="0.96"/><text x="640" y="393" font-size="12" fill="#F8FAFC" font-weight="650" text-anchor="middle" opacity="1"><tspan x="640" dy="0">SIP 出站命令</tspan></text>
<polyline points="200,497 200,535 300,555" fill="none" stroke="#60A5FA" stroke-width="2.5" stroke-linecap="round" stroke-linejoin="round" marker-end="url(#arrowBlue)"/><rect x="163.0" y="517" width="84" height="28" rx="14" fill="#0B1020" stroke="#60A5FA" stroke-width="1.3" opacity="0.96"/><text x="205" y="537" font-size="12" fill="#F8FAFC" font-weight="650" text-anchor="middle" opacity="1"><tspan x="205" dy="0">RTP 推流</tspan></text>
<polyline points="320,610 620,610 965,492" fill="none" stroke="#60A5FA" stroke-width="2.5" stroke-linecap="round" stroke-linejoin="round" marker-end="url(#arrowBlue)"/><rect x="583.0" y="569" width="84" height="28" rx="14" fill="#0B1020" stroke="#60A5FA" stroke-width="1.3" opacity="0.96"/><text x="625" y="589" font-size="12" fill="#F8FAFC" font-weight="650" text-anchor="middle" opacity="1"><tspan x="625" dy="0">Hook 回调</tspan></text>
<polyline points="965,505 650,560 320,590" fill="none" stroke="#60A5FA" stroke-width="2.2" stroke-linecap="round" stroke-linejoin="round" marker-end="url(#arrowBlue)"/><rect x="688.0" y="533" width="84" height="28" rx="14" fill="#0B1020" stroke="#60A5FA" stroke-width="1.3" opacity="0.96"/><text x="730" y="553" font-size="12" fill="#F8FAFC" font-weight="650" text-anchor="middle" opacity="1"><tspan x="730" dy="0">ZLM API</tspan></text>
<polyline points="780,331 780,395" fill="none" stroke="#4ADE80" stroke-width="2.8" stroke-linecap="round" stroke-linejoin="round" marker-end="url(#arrowGreen)"/><rect x="686.0" y="348" width="84" height="28" rx="14" fill="#0B1020" stroke="#4ADE80" stroke-width="1.3" opacity="0.96"/><text x="728" y="368" font-size="12" fill="#F8FAFC" font-weight="650" text-anchor="middle" opacity="1"><tspan x="728" dy="0">业务编排</tspan></text>
<polyline points="960,331 960,605" fill="none" stroke="#FDBA74" stroke-width="2.5" stroke-linecap="round" stroke-linejoin="round" marker-end="url(#arrowOrange)"/><rect x="957.0" y="347" width="156" height="28" rx="14" fill="#0B1020" stroke="#FDBA74" stroke-width="1.3" opacity="0.96"/><text x="1035" y="367" font-size="12" fill="#F8FAFC" font-weight="650" text-anchor="middle" opacity="1"><tspan x="1035" dy="0">简单 CRUD / DTO</tspan></text>
<polyline points="1140,331 1140,395" fill="none" stroke="#F472B6" stroke-width="2.5" stroke-linecap="round" stroke-linejoin="round" marker-end="url(#arrowPink)"/><rect x="1138.0" y="348" width="144" height="28" rx="14" fill="#0B1020" stroke="#F472B6" stroke-width="1.3" opacity="0.96"/><text x="1210" y="368" font-size="12" fill="#F8FAFC" font-weight="650" text-anchor="middle" opacity="1"><tspan x="1210" dy="0">ZLM Hook/API</tspan></text>
<polyline points="900,458 965,458" fill="none" stroke="#F472B6" stroke-width="2.4" stroke-linecap="round" stroke-linejoin="round" marker-end="url(#arrowPink)"/><rect x="890.0" y="367" width="84" height="28" rx="14" fill="#0B1020" stroke="#F472B6" stroke-width="1.3" opacity="0.96"/><text x="932" y="387" font-size="12" fill="#F8FAFC" font-weight="650" text-anchor="middle" opacity="1"><tspan x="932" dy="0">协议能力</tspan></text>
<polyline points="690,521 775,605" fill="none" stroke="#FDBA74" stroke-width="2.4" stroke-linecap="round" stroke-linejoin="round" marker-end="url(#arrowOrange)"/><rect x="670.0" y="545" width="120" height="28" rx="14" fill="#0B1020" stroke="#FDBA74" stroke-width="1.3" opacity="0.96"/><text x="730" y="565" font-size="12" fill="#F8FAFC" font-weight="650" text-anchor="middle" opacity="1"><tspan x="730" dy="0">Manager 调用</tspan></text>
<polyline points="1120,521 1070,605" fill="none" stroke="#FDBA74" stroke-width="2.4" stroke-linecap="round" stroke-linejoin="round" marker-end="url(#arrowOrange)"/><rect x="1076.0" y="545" width="84" height="28" rx="14" fill="#0B1020" stroke="#FDBA74" stroke-width="1.3" opacity="0.96"/><text x="1118" y="565" font-size="12" fill="#F8FAFC" font-weight="650" text-anchor="middle" opacity="1"><tspan x="1118" dy="0">回调落库</tspan></text>
<polyline points="955,731 955,790" fill="none" stroke="#A5B4FC" stroke-width="2.7" stroke-linecap="round" stroke-linejoin="round" marker-end="url(#arrow)"/><rect x="972.0" y="747" width="96" height="28" rx="14" fill="#0B1020" stroke="#A5B4FC" stroke-width="1.3" opacity="0.96"/><text x="1020" y="767" font-size="12" fill="#F8FAFC" font-weight="650" text-anchor="middle" opacity="1"><tspan x="1020" dy="0">DTO ↔ DO</tspan></text>
<polyline points="955,902 955,920" fill="none" stroke="#94A3B8" stroke-width="1.8" stroke-linecap="round" stroke-linejoin="round" marker-end="url(#arrow)" stroke-dasharray="8 7"/>
<polyline points="690,946 300,946 300,330" fill="none" stroke="#64748B" stroke-width="1.8" stroke-linecap="round" stroke-linejoin="round" marker-end="url(#arrow)" stroke-dasharray="8 7"/><rect x="366.0" y="903" width="108" height="28" rx="14" fill="#0B1020" stroke="#64748B" stroke-width="1.3" opacity="0.96"/><text x="420" y="923" font-size="12" fill="#F8FAFC" font-weight="650" text-anchor="middle" opacity="1"><tspan x="420" dy="0">Req/VO/契约</tspan></text>
<polyline points="1220,832 1490,832 1490,303 1600,303" fill="none" stroke="#CBD5E1" stroke-width="2.2" stroke-linecap="round" stroke-linejoin="round" marker-end="url(#arrow)"/><rect x="1328.0" y="795" width="144" height="28" rx="14" fill="#0B1020" stroke="#CBD5E1" stroke-width="1.3" opacity="0.96"/><text x="1400" y="815" font-size="12" fill="#F8FAFC" font-weight="650" text-anchor="middle" opacity="1"><tspan x="1400" dy="0">MyBatis-Plus</tspan></text>
<polyline points="1220,860 1510,860 1510,482 1600,482" fill="none" stroke="#EF4444" stroke-width="2.2" stroke-linecap="round" stroke-linejoin="round" marker-end="url(#arrow)"/><rect x="1326.0" y="869" width="168" height="28" rx="14" fill="#0B1020" stroke="#EF4444" stroke-width="1.3" opacity="0.96"/><text x="1410" y="889" font-size="12" fill="#F8FAFC" font-weight="650" text-anchor="middle" opacity="1"><tspan x="1410" dy="0">@Cached / Lock</tspan></text>
<polyline points="900,450 1515,450 1600,482" fill="none" stroke="#EF4444" stroke-width="2.0" stroke-linecap="round" stroke-linejoin="round" marker-end="url(#arrow)"/><rect x="1180.0" y="412" width="300" height="28" rx="14" fill="#0B1020" stroke="#EF4444" stroke-width="1.3" opacity="0.96"/><text x="1330" y="432" font-size="12" fill="#F8FAFC" font-weight="650" text-anchor="middle" opacity="1"><tspan x="1330" dy="0">SSE PubSub / LiveRegistry</tspan></text>
<polyline points="1300,668 1530,668 1530,500 1600,500" fill="none" stroke="#EF4444" stroke-width="2.0" stroke-linecap="round" stroke-linejoin="round" marker-end="url(#arrow)"/><rect x="1354.0" y="627" width="132" height="28" rx="14" fill="#0B1020" stroke="#EF4444" stroke-width="1.3" opacity="0.96"/><text x="1420" y="647" font-size="12" fill="#F8FAFC" font-weight="650" text-anchor="middle" opacity="1"><tspan x="1420" dy="0">节点路由 / 延迟双删</tspan></text>
<polyline points="1300,272 1540,272 1540,675 1600,675" fill="none" stroke="#A78BFA" stroke-width="1.8" stroke-linecap="round" stroke-linejoin="round" marker-end="url(#arrow)" stroke-dasharray="8 7"/><rect x="1408.0" y="235" width="84" height="28" rx="14" fill="#0B1020" stroke="#A78BFA" stroke-width="1.3" opacity="0.96"/><text x="1450" y="255" font-size="12" fill="#F8FAFC" font-weight="650" text-anchor="middle" opacity="1"><tspan x="1450" dy="0">Trace</tspan></text>
<polyline points="1410,455 1550,455 1550,675 1600,675" fill="none" stroke="#A78BFA" stroke-width="1.8" stroke-linecap="round" stroke-linejoin="round" marker-end="url(#arrow)" stroke-dasharray="8 7"/><rect x="1387.0" y="463" width="156" height="28" rx="14" fill="#0B1020" stroke="#A78BFA" stroke-width="1.3" opacity="0.96"/><text x="1465" y="483" font-size="12" fill="#F8FAFC" font-weight="650" text-anchor="middle" opacity="1"><tspan x="1465" dy="0">SIP/ZLM Trace</tspan></text>
<rect class="panel" x="50" y="990" width="1820" height="190" rx="30" fill="#0F172A" stroke="#334155" stroke-width="1.4" opacity="0.95"/>
<text x="82" y="1032" font-size="22" fill="#F8FAFC" font-weight="820" text-anchor="start" opacity="1"><tspan x="82" dy="0">四条核心运行链路</tspan></text>
<rect class="card" x="80" y="1060" width="405" height="72" rx="20" fill="#172554" stroke="#38BDF8" stroke-width="1.8" opacity="0.98"/>
<text x="100" y="1088" font-size="15" fill="#F8FAFC" font-weight="800" text-anchor="start" opacity="1"><tspan x="100" dy="0">入站事件</tspan></text>
<text x="100" y="1113" font-size="11.5" fill="#CBD5E1" font-weight="520" text-anchor="start" opacity="1"><tspan x="100" dy="0">GatewayEvent → DeviceEvent → 16 分片 → Handler</tspan></text>
<rect class="card" x="520" y="1060" width="405" height="72" rx="20" fill="#3B1D08" stroke="#F59E0B" stroke-width="1.8" opacity="0.98"/>
<text x="540" y="1088" font-size="15" fill="#F8FAFC" font-weight="800" text-anchor="start" opacity="1"><tspan x="540" dy="0">出站命令</tspan></text>
<text x="540" y="1113" font-size="11.5" fill="#CBD5E1" font-weight="520" text-anchor="start" opacity="1"><tspan x="540" dy="0">REST/Service → DeviceAgreementService → GB Command → SIP</tspan></text>
<rect class="card" x="960" y="1060" width="405" height="72" rx="20" fill="#052E16" stroke="#4ADE80" stroke-width="1.8" opacity="0.98"/>
<text x="980" y="1088" font-size="15" fill="#F8FAFC" font-weight="800" text-anchor="start" opacity="1"><tspan x="980" dy="0">直播建流</tspan></text>
<text x="980" y="1113" font-size="11.5" fill="#CBD5E1" font-weight="520" text-anchor="start" opacity="1"><tspan x="980" dy="0">选 ZLM 节点 → openRtpServer → INVITE → Hook → PlayUrl</tspan></text>
<rect class="card" x="1400" y="1060" width="405" height="72" rx="20" fill="#3A1430" stroke="#F472B6" stroke-width="1.8" opacity="0.98"/>
<text x="1420" y="1088" font-size="15" fill="#F8FAFC" font-weight="800" text-anchor="start" opacity="1"><tspan x="1420" dy="0">实时推送</tspan></text>
<text x="1420" y="1113" font-size="11.5" fill="#CBD5E1" font-weight="520" text-anchor="start" opacity="1"><tspan x="1420" dy="0">Domain Event → SseEventBus → Redis Pub/Sub → Browser</tspan></text>
<text x="82" y="1158" font-size="15" fill="#CBD5E1" font-weight="520" text-anchor="start" opacity="1"><tspan x="82" dy="0">架构原则：Web 只做协议适配；Manager 负责复杂编排和缓存一致性；Repository 承担持久化和单对象缓存；Integration 只包装外部系统；新增协议通过 SPI Handler/Service 扩展。</tspan></text>
</svg>